<svg width="160" height="48" viewBox="0 0 160 48" fill="none" xmlns="http://www.w3.org/2000/svg">
<path d="M116.84 27.7578C116.84 25.3612 117.563 23.1549 118.932 21.5192C120.302 19.8835 122.394 18.8564 124.905 18.8564C130.726 18.8564 132.895 23.4593 132.895 27.4154C132.895 29.7739 132.096 32.1704 130.384 33.8061C129.09 35.0994 127.264 35.9363 124.829 35.9363C119.427 35.9363 116.84 31.6378 116.84 27.7578ZM124.335 20.1878C120.911 20.1878 120.112 23.5734 120.112 26.8828C120.112 29.8119 121.405 34.6049 125.362 34.6049C127.15 34.6049 129.623 33.4257 129.623 28.6327C129.623 23.1549 127.607 20.1878 124.335 20.1878Z" fill="black"/>
<path d="M108.44 12.8188C108.44 11.9093 109.501 10.9998 110.411 10.9998C111.435 10.9998 112.231 12.0609 112.231 12.9704C112.231 13.8041 111.321 14.7894 110.26 14.7894C109.35 14.7894 108.44 13.8041 108.44 12.8188ZM111.89 30.8956C111.89 33.7392 112.231 34.1359 114.005 34.2979C114.4 34.334 114.777 34.5197 114.789 34.9166C114.803 35.3678 114.364 35.5867 113.913 35.5741C112.837 35.5442 111.65 35.519 110.411 35.519C109.175 35.519 107.963 35.5441 106.88 35.574C106.423 35.5866 105.979 35.3635 105.995 34.9071C106.01 34.5149 106.38 34.3301 106.77 34.2899C108.553 34.1062 108.895 33.744 108.895 30.8956V23.5057C108.895 21.5501 108.553 21.2096 106.969 20.994C106.641 20.9494 106.364 20.721 106.335 20.3916C106.306 20.068 106.559 19.8414 106.881 19.7968C108.914 19.5149 110.207 19.2294 111.188 18.8977C111.428 18.8165 111.701 18.7207 111.919 18.8501C111.998 18.8971 112.041 18.9611 112.041 19.0339C112.041 19.0339 111.89 21.4593 111.89 23.3541V30.8956Z" fill="black"/>
<path d="M80.3839 21.9534C80.3839 22.4081 80.65 22.1807 80.8401 21.9534C82.3989 20.2104 84.4138 18.8842 86.6188 18.8842C88.5957 18.8842 90.0404 20.1346 90.4206 21.6881C90.4966 21.9913 90.7247 21.8018 90.8388 21.6881C92.8157 19.6041 95.1348 18.8842 97.1117 18.8842C100.457 18.8842 101.028 21.5366 101.028 24.9089V30.8957C101.028 33.6759 101.301 34.1201 102.857 34.2913C103.241 34.3336 103.592 34.5279 103.603 34.9142C103.614 35.3543 103.204 35.5845 102.763 35.5709C101.835 35.5422 100.75 35.5184 99.5448 35.5184C98.3635 35.5184 97.2511 35.5413 96.3678 35.5692C95.9258 35.5832 95.5126 35.352 95.5253 34.91C95.5363 34.5258 95.8849 34.3336 96.2665 34.2881C97.7235 34.1145 98.0241 33.6588 98.0241 30.8957V24.2268C98.0241 21.6881 97.1877 20.8545 95.7431 20.8545C94.435 20.8545 92.9494 21.2379 91.3646 22.7071C90.9387 23.1019 90.7544 23.6843 90.7606 24.265C90.7628 24.4641 90.7628 24.6676 90.7628 24.871V30.8957C90.7628 33.6442 91.0305 34.1096 92.4081 34.2854C92.7886 34.3339 93.1362 34.5249 93.1475 34.9083C93.1605 35.3513 92.7466 35.5831 92.3037 35.5685C91.4654 35.5409 90.4517 35.5184 89.2801 35.5184C88.0982 35.5184 86.9852 35.5413 86.1018 35.5693C85.6605 35.5832 85.2481 35.3527 85.2605 34.9115C85.2712 34.5266 85.6207 34.3337 86.0033 34.2902C87.5168 34.1182 87.7594 33.6701 87.7594 30.8957V24.3026C87.7594 21.7639 86.6949 20.8545 85.2502 20.8545C84.0716 20.8545 82.627 21.6502 81.1443 23.0901C80.8401 23.4311 80.498 23.8858 80.498 24.6815V30.8957C80.498 33.6481 80.8261 34.0812 82.2225 34.2759C82.6053 34.3293 82.9697 34.5085 82.9865 34.8946C83.0067 35.3574 82.5545 35.585 82.0914 35.5705C81.1782 35.542 80.2151 35.5184 79.0153 35.5184C77.7958 35.5184 76.6252 35.5428 75.6211 35.5719C75.1668 35.5852 74.7238 35.3647 74.7393 34.9105C74.7527 34.5164 75.1273 34.3337 75.5194 34.2911C77.0992 34.1197 77.4946 33.6748 77.4946 30.8957V23.5069C77.4946 21.5194 77.1525 21.1744 75.5686 20.9864C75.238 20.9472 74.9562 20.7186 74.9272 20.387C74.8992 20.0666 75.1507 19.8437 75.4691 19.7985C77.4781 19.5134 78.4291 19.2246 79.3192 18.8879C79.5208 18.8116 79.7973 18.7283 79.944 18.8863C80.06 19.0111 80.111 19.1547 80.1435 19.322C80.2547 19.8949 80.3193 21.0199 80.3839 21.9534Z" fill="black"/>
<path d="M61.5663 35.9365C57.8144 35.9365 56.6774 33.3935 56.6774 30.7746V23.4872C56.6774 21.3184 56.2674 20.7335 54.9324 20.5206C54.5445 20.4588 54.1727 20.2799 54.1584 19.8873C54.1417 19.4302 54.587 19.2061 55.0443 19.2189C56.1125 19.2489 57.2035 19.2742 58.1934 19.2742C58.6207 19.2742 59.0479 19.2527 59.3143 19.2259C59.4516 19.2121 59.6016 19.1765 59.7175 19.2513C59.7854 19.2951 59.823 19.3605 59.823 19.426C59.823 19.426 59.6714 22.1967 59.6714 23.3354V30.2432C59.6714 33.6212 61.5663 34.1526 62.7032 34.1526C63.6507 34.1526 65.0908 33.5453 66.493 32.3308C67.0236 31.8753 67.0994 31.5716 67.0994 30.8505V23.5251C67.0994 21.3238 66.719 20.7052 65.3666 20.5103C64.9715 20.4534 64.5915 20.2734 64.5799 19.8745C64.5669 19.4243 65.005 19.206 65.4552 19.2186C66.527 19.2487 67.622 19.2742 68.6153 19.2742C69.0426 19.2742 69.4699 19.2527 69.7363 19.2259C69.8736 19.2121 70.0236 19.1765 70.1395 19.2513C70.2074 19.2951 70.245 19.3605 70.245 19.426C70.245 19.426 70.0934 22.1967 70.0934 23.3354V30.6228C70.0934 32.3268 70.3797 33.0749 72.2932 33.3343C72.6569 33.3836 73.0363 33.556 73.0303 33.923C73.0247 34.2707 72.6708 34.4375 72.3266 34.4874C70.4462 34.7599 69.2841 35.2516 68.5144 35.8367C68.4292 35.9015 68.3319 35.9654 68.2289 35.9945C67.8763 36.0941 67.6102 35.7276 67.5287 35.3704C67.4251 34.9161 67.2945 34.2629 67.251 33.6971C67.2131 33.4315 66.872 33.5074 66.6825 33.6592C64.8255 35.1774 63.0443 35.9365 61.5663 35.9365Z" fill="black"/>
<path d="M49.9142 30.8957C49.9142 33.7754 50.4553 34.1775 52.5863 34.3121C52.9913 34.3377 53.3795 34.528 53.388 34.9337C53.3972 35.3761 52.9674 35.5891 52.525 35.5794C51.0562 35.5473 49.5322 35.5191 48.3195 35.5191C47.0707 35.5191 45.5659 35.5475 44.0759 35.5797C43.6336 35.5892 43.2039 35.3763 43.2131 34.934C43.2215 34.5281 43.6099 34.3377 44.015 34.3121C46.1459 34.1775 46.6869 33.7753 46.6869 30.8957V23.7726C46.6869 23.5416 46.4995 23.3542 46.2684 23.3542H34.1199C33.8888 23.3542 33.7015 23.5416 33.7015 23.7726V30.8957C33.7015 33.7754 34.2426 34.1775 36.3736 34.3121C36.7786 34.3377 37.1668 34.528 37.1753 34.9337C37.1845 35.3761 36.7547 35.5891 36.3123 35.5795C34.8358 35.5473 33.2872 35.5191 32.1068 35.5191C30.8613 35.5191 29.3329 35.5473 27.8634 35.5794C27.421 35.5891 26.9911 35.3761 27.0004 34.9337C27.0088 34.528 27.3971 34.3377 27.802 34.3121C29.9331 34.1775 30.4742 33.7754 30.4742 30.8957V15.6991C30.4742 12.8186 29.9328 12.4171 27.8004 12.2825C27.3965 12.2571 27.0093 12.0676 27.0004 11.6629C26.9907 11.2197 27.4218 11.0067 27.865 11.0177C29.1147 11.0488 30.4707 11.0757 32.0688 11.0757C33.699 11.0757 35.0601 11.0488 36.3107 11.0177C36.7539 11.0067 37.185 11.2197 37.1752 11.6629C37.1664 12.0676 36.7792 12.2571 36.3752 12.2825C34.2428 12.4171 33.7015 12.8186 33.7015 15.6991V21.3441C33.7015 21.5752 33.8888 21.7626 34.1199 21.7626H46.2684C46.4995 21.7626 46.6869 21.5752 46.6869 21.3441V15.6991C46.6869 12.8193 46.1458 12.4173 44.0148 12.2826C43.6098 12.2571 43.2216 12.0667 43.2131 11.6611C43.2039 11.2186 43.6337 11.0057 44.0761 11.0154C45.5372 11.0475 47.0366 11.0757 48.2816 11.0757C49.5167 11.0757 51.1136 11.0479 52.5244 11.0161C52.9672 11.0062 53.3974 11.2191 53.388 11.6619C53.3793 12.0671 52.9916 12.2571 52.5871 12.2826C50.4554 12.4172 49.9142 12.819 49.9142 15.6991V30.8957Z" fill="black"/>
<circle cx="29.5" cy="11.5" r="9.5" fill="#FF8400"/>
</svg>
